<svg width="1440" height="431" viewBox="0 0 1440 431" fill="none" xmlns="http://www.w3.org/2000/svg">
<path fill-rule="evenodd" clip-rule="evenodd" d="M0 0L60 7.18333C120 14.3667 240 28.7333 360 79.0167C480 129.3 600 215.5 720 251.417C840 287.333 960 272.967 1080 237.05C1200 201.133 1320 143.667 1380 114.933L1440 86.2V431H1380C1320 431 1200 431 1080 431C960 431 840 431 720 431C600 431 480 431 360 431C240 431 120 431 60 431H0V0Z" fill="#E8622C" fill-opacity="0.9"/>
<path fill-rule="evenodd" clip-rule="evenodd" d="M0 272.263L24 228.447C48 184.632 96 97 144 97C192 97 240 184.632 288 202.158C336 219.684 384 167.105 432 184.632C480 202.158 528 289.789 576 289.789C624 289.789 672 202.158 720 167.105C768 132.053 816 149.579 864 175.868C912 202.158 960 237.211 1008 254.737C1056 272.263 1104 272.263 1152 254.737C1200 237.211 1248 202.158 1296 193.395C1344 184.632 1392 202.158 1416 210.921L1440 219.684V430H1416C1392 430 1344 430 1296 430C1248 430 1200 430 1152 430C1104 430 1056 430 1008 430C960 430 912 430 864 430C816 430 768 430 720 430C672 430 624 430 576 430C528 430 480 430 432 430C384 430 336 430 288 430C240 430 192 430 144 430C96 430 48 430 24 430H0V272.263Z" fill="#F5C144" fill-opacity="0.8"/>
<path fill-rule="evenodd" clip-rule="evenodd" d="M0 263.5L60 246.85C120 230.2 240 196.9 360 219.1C480 241.3 600 319 720 319C840 319 960 241.3 1080 191.35C1200 141.4 1320 119.2 1380 108.1L1440 97V430H1380C1320 430 1200 430 1080 430C960 430 840 430 720 430C600 430 480 430 360 430C240 430 120 430 60 430H0V263.5Z" fill="#7A3CE3" fill-opacity="0.7"/>
<path fill-rule="evenodd" clip-rule="evenodd" d="M0 252L60 269.9C120 287.8 240 323.6 360 323.6C480 323.6 600 287.8 720 293.767C840 299.733 960 347.467 1080 371.333C1200 395.2 1320 395.2 1380 395.2H1440V431H1380C1320 431 1200 431 1080 431C960 431 840 431 720 431C600 431 480 431 360 431C240 431 120 431 60 431H0V252Z" fill="#4F84F7" fill-opacity="0.6"/>
</svg>