<svg width="200" height="200" viewBox="0 0 200 200" fill="none" xmlns="http://www.w3.org/2000/svg">
<g filter="url(#filter0_d_2_60)">
<rect x="25" y="25" width="150" height="150" rx="35" fill="#5865F2"/>
<path d="M137.774 65.7676C130.826 62.5798 123.376 60.2312 115.587 58.8861C115.445 58.8601 115.303 58.925 115.23 59.0548C114.272 60.7589 113.211 62.9821 112.467 64.7295C104.089 63.4752 95.7543 63.4752 87.548 64.7295C86.8046 62.9432 85.7048 60.7589 84.7424 59.0548C84.6693 58.9294 84.5276 58.8645 84.3857 58.8861C76.6005 60.2269 69.1505 62.5756 62.1988 65.7676C62.1386 65.7936 62.0871 65.8368 62.0528 65.893C47.9217 87.0047 44.0506 107.597 45.9496 127.935C45.9582 128.034 46.014 128.129 46.0914 128.19C55.4147 135.037 64.4459 139.193 73.3095 141.949C73.4513 141.992 73.6016 141.94 73.6919 141.823C75.7886 138.96 77.6576 135.941 79.26 132.766C79.3546 132.58 79.2643 132.359 79.071 132.286C76.1065 131.161 73.2837 129.79 70.5683 128.233C70.3535 128.108 70.3363 127.801 70.5339 127.654C71.1053 127.225 71.6769 126.78 72.2225 126.33C72.3212 126.248 72.4588 126.231 72.5749 126.282C90.4137 134.427 109.726 134.427 127.355 126.282C127.471 126.226 127.608 126.244 127.711 126.326C128.257 126.776 128.828 127.225 129.404 127.654C129.602 127.801 129.589 128.108 129.374 128.233C126.659 129.821 123.836 131.161 120.867 132.282C120.674 132.355 120.588 132.58 120.682 132.766C122.319 135.936 124.188 138.955 126.246 141.819C126.332 141.94 126.487 141.992 126.629 141.949C135.535 139.193 144.566 135.037 153.89 128.19C153.971 128.129 154.023 128.039 154.031 127.939C156.304 104.427 150.225 84.003 137.915 65.8973C137.885 65.8368 137.834 65.7936 137.774 65.7676ZM81.924 115.551C76.5533 115.551 72.1279 110.621 72.1279 104.565C72.1279 98.5099 76.4674 93.5792 81.924 93.5792C87.4233 93.5792 91.8058 98.5532 91.7198 104.565C91.7198 110.621 87.3804 115.551 81.924 115.551ZM118.143 115.551C112.773 115.551 108.347 110.621 108.347 104.565C108.347 98.5099 112.687 93.5792 118.143 93.5792C123.643 93.5792 128.025 98.5532 127.939 104.565C127.939 110.621 123.643 115.551 118.143 115.551Z" fill="white"/>
</g>
<defs>
<filter id="filter0_d_2_60" x="0" y="0" width="200" height="200" filterUnits="userSpaceOnUse" color-interpolation-filters="sRGB">
<feFlood flood-opacity="0" result="BackgroundImageFix"/>
<feColorMatrix in="SourceAlpha" type="matrix" values="0 0 0 0 0 0 0 0 0 0 0 0 0 0 0 0 0 0 127 0" result="hardAlpha"/>
<feOffset/>
<feGaussianBlur stdDeviation="12.5"/>
<feComposite in2="hardAlpha" operator="out"/>
<feColorMatrix type="matrix" values="0 0 0 0 0.309804 0 0 0 0 0.517647 0 0 0 0 0.968627 0 0 0 0.5 0"/>
<feBlend mode="normal" in2="BackgroundImageFix" result="effect1_dropShadow_2_60"/>
<feBlend mode="normal" in="SourceGraphic" in2="effect1_dropShadow_2_60" result="shape"/>
</filter>
</defs>
</svg>
