<svg width="200" height="200" viewBox="0 0 200 200" fill="none" xmlns="http://www.w3.org/2000/svg">
<g filter="url(#filter0_d_2_45)">
<path d="M63.0361 174.469C54.1155 174.064 49.2696 172.579 46.0465 171.322C41.7756 169.659 38.7308 167.68 35.5255 164.479C32.3201 161.278 30.3363 158.233 28.6823 153.962C27.4252 150.739 25.9406 145.893 25.535 136.973C25.0892 127.33 25 124.437 25 100.007C25 75.5766 25.0981 72.6878 25.5305 63.0361C25.9362 54.1155 27.4296 49.2785 28.6779 46.0465C30.3407 41.7756 32.3246 38.7308 35.521 35.521C38.7219 32.3201 41.7667 30.3318 46.042 28.6779C49.2652 27.4207 54.1111 25.9362 63.0316 25.5305C72.6788 25.0892 75.5766 25 99.9978 25C124.428 25 127.317 25.0981 136.968 25.5305C145.889 25.9362 150.726 27.4296 153.958 28.6779C158.229 30.3318 161.274 32.3201 164.479 35.521C167.684 38.7219 169.659 41.7712 171.322 46.042C172.579 49.2652 174.064 54.1111 174.469 63.0316C174.911 72.6833 175 75.5721 175 100.002C175 124.423 174.911 127.321 174.469 136.973C174.064 145.893 172.57 150.739 171.322 153.962C169.659 158.233 167.68 161.278 164.479 164.479C161.278 167.68 158.229 169.659 153.958 171.322C150.735 172.579 145.889 174.064 136.968 174.469C127.326 174.911 124.428 175 99.9978 175C75.5766 175 72.6788 174.915 63.0361 174.469Z" fill="url(#paint0_radial_2_45)"/>
<path d="M63.0361 174.469C54.1155 174.064 49.2696 172.579 46.0465 171.322C41.7756 169.659 38.7308 167.68 35.5255 164.479C32.3201 161.278 30.3363 158.233 28.6823 153.962C27.4252 150.739 25.9406 145.893 25.535 136.973C25.0892 127.33 25 124.437 25 100.007C25 75.5766 25.0981 72.6878 25.5305 63.0361C25.9362 54.1155 27.4296 49.2785 28.6779 46.0465C30.3407 41.7756 32.3246 38.7308 35.521 35.521C38.7219 32.3201 41.7667 30.3318 46.042 28.6779C49.2652 27.4207 54.1111 25.9362 63.0316 25.5305C72.6788 25.0892 75.5766 25 99.9978 25C124.428 25 127.317 25.0981 136.968 25.5305C145.889 25.9362 150.726 27.4296 153.958 28.6779C158.229 30.3318 161.274 32.3201 164.479 35.521C167.684 38.7219 169.659 41.7712 171.322 46.042C172.579 49.2652 174.064 54.1111 174.469 63.0316C174.911 72.6833 175 75.5721 175 100.002C175 124.423 174.911 127.321 174.469 136.973C174.064 145.893 172.57 150.739 171.322 153.962C169.659 158.233 167.68 161.278 164.479 164.479C161.278 167.68 158.229 169.659 153.958 171.322C150.735 172.579 145.889 174.064 136.968 174.469C127.326 174.911 124.428 175 99.9978 175C75.5766 175 72.6788 174.915 63.0361 174.469Z" fill="url(#paint1_radial_2_45)"/>
<path d="M82.9818 99.4688C82.9818 90.3621 90.3621 82.9778 99.4688 82.9778C108.575 82.9778 115.96 90.3621 115.96 99.4688C115.96 108.575 108.575 115.96 99.4688 115.96C90.3621 115.96 82.9818 108.575 82.9818 99.4688ZM74.0671 99.4688C74.0671 113.498 85.4394 124.87 99.4688 124.87C113.498 124.87 124.87 113.498 124.87 99.4688C124.87 85.4394 113.498 74.0671 99.4688 74.0671C85.4394 74.0671 74.0675 85.4386 74.0675 99.4688M119.94 73.06C119.94 74.234 120.287 75.3819 120.939 76.3584C121.591 77.3348 122.518 78.0961 123.602 78.5458C124.687 78.9955 125.881 79.1136 127.032 78.885C128.184 78.6564 129.242 78.0914 130.072 77.2616C130.903 76.4317 131.469 75.3742 131.698 74.2228C131.928 73.0713 131.811 71.8777 131.362 70.7928C130.913 69.7079 130.152 68.7805 129.176 68.1278C128.2 67.4752 127.053 67.1266 125.879 67.1261H125.876C124.303 67.1268 122.793 67.7521 121.68 68.8647C120.567 69.9773 119.941 71.4862 119.94 73.06ZM79.4834 139.736C74.6604 139.516 72.0389 138.713 70.2968 138.034C67.9872 137.135 66.3393 136.064 64.6067 134.334C62.8741 132.603 61.8017 130.957 60.9065 128.647C60.2274 126.906 59.424 124.284 59.2047 119.461C58.9649 114.246 58.917 112.68 58.917 99.4695C58.917 86.259 58.9689 84.697 59.2047 79.4782C59.4244 74.6552 60.2337 72.0381 60.9065 70.2917C61.8056 67.9821 62.8765 66.3342 64.6067 64.6016C66.337 62.869 67.9833 61.7965 70.2968 60.9013C72.0381 60.2222 74.6604 59.4188 79.4834 59.1996C84.6978 58.9598 86.2642 58.9119 99.4688 58.9119C112.673 58.9119 114.241 58.9629 119.46 59.2004C124.283 59.42 126.9 60.2293 128.647 60.9021C130.956 61.7973 132.604 62.8722 134.337 64.6024C136.069 66.3326 137.138 67.9829 138.037 70.2925C138.716 72.0338 139.519 74.656 139.739 79.479C139.979 84.6978 140.026 86.2598 140.026 99.4703C140.026 112.681 139.979 114.243 139.739 119.462C139.519 124.285 138.712 126.906 138.037 128.648C137.138 130.958 136.067 132.606 134.337 134.334C132.606 136.063 130.956 137.135 128.647 138.035C126.905 138.714 124.283 139.517 119.46 139.736C114.246 139.976 112.679 140.024 99.4688 140.024C86.2582 140.024 84.6962 139.976 79.4834 139.736M79.0738 50.2996C73.8075 50.5394 70.209 51.3744 67.0663 52.5973C63.8137 53.8601 61.0565 55.5544 58.3032 58.3032C55.55 61.0521 53.8601 63.8097 52.5973 67.0663C51.3744 70.211 50.5394 73.8075 50.2996 79.0738C50.0558 84.3483 50 86.0346 50 99.4688C50 112.903 50.0558 114.589 50.2996 119.864C50.5394 125.13 51.3744 128.727 52.5973 131.871C53.8601 135.124 55.5504 137.887 58.3032 140.634C61.0561 143.382 63.8097 145.074 67.0663 146.34C70.2149 147.563 73.8075 148.398 79.0738 148.638C84.3511 148.878 86.0346 148.938 99.4688 148.938C112.903 148.938 114.589 148.882 119.864 148.638C125.13 148.398 128.727 147.563 131.871 146.34C135.124 145.074 137.881 143.383 140.634 140.634C143.387 137.885 145.074 135.124 146.34 131.871C147.563 128.727 148.402 125.13 148.638 119.864C148.878 114.585 148.934 112.903 148.934 99.4688C148.934 86.0346 148.878 84.3483 148.638 79.0738C148.398 73.8071 147.563 70.209 146.34 67.0663C145.074 63.8137 143.383 61.0565 140.634 58.3032C137.885 55.55 135.124 53.8601 131.875 52.5973C128.727 51.3744 125.13 50.5355 119.868 50.2996C114.592 50.0586 112.907 50 99.4747 50C86.0425 50 84.3531 50.0558 79.0758 50.2996" fill="white"/>
</g>
<defs>
<filter id="filter0_d_2_45" x="0" y="0" width="200" height="200" filterUnits="userSpaceOnUse" color-interpolation-filters="sRGB">
<feFlood flood-opacity="0" result="BackgroundImageFix"/>
<feColorMatrix in="SourceAlpha" type="matrix" values="0 0 0 0 0 0 0 0 0 0 0 0 0 0 0 0 0 0 127 0" result="hardAlpha"/>
<feOffset/>
<feGaussianBlur stdDeviation="12.5"/>
<feComposite in2="hardAlpha" operator="out"/>
<feColorMatrix type="matrix" values="0 0 0 0 0.309804 0 0 0 0 0.517647 0 0 0 0 0.968627 0 0 0 0.5 0"/>
<feBlend mode="normal" in2="BackgroundImageFix" result="effect1_dropShadow_2_45"/>
<feBlend mode="normal" in="SourceGraphic" in2="effect1_dropShadow_2_45" result="shape"/>
</filter>
<radialGradient id="paint0_radial_2_45" cx="0" cy="0" r="1" gradientUnits="userSpaceOnUse" gradientTransform="translate(34.7078 171.714) scale(190.444)">
<stop offset="0.09" stop-color="#FA8F21"/>
<stop offset="0.78" stop-color="#D82D7E"/>
</radialGradient>
<radialGradient id="paint1_radial_2_45" cx="0" cy="0" r="1" gradientUnits="userSpaceOnUse" gradientTransform="translate(128.9 166.897) scale(167.593)">
<stop offset="0.64" stop-color="#8C3AAA" stop-opacity="0"/>
<stop offset="1" stop-color="#8C3AAA"/>
</radialGradient>
</defs>
</svg>
