<svg width="200" height="200" viewBox="0 0 200 200" fill="none" xmlns="http://www.w3.org/2000/svg">
<g filter="url(#filter0_d_1_13)">
<rect x="25" y="25" width="150" height="150" rx="35" fill="white"/>
<g clip-path="url(#clip0_1_13)">
<path d="M100 165.217C136.019 165.217 165.217 136.019 165.217 100C165.217 63.9814 136.019 34.7826 100 34.7826C63.9814 34.7826 34.7826 63.9814 34.7826 100C34.7826 136.019 63.9814 165.217 100 165.217Z" fill="url(#paint0_linear_1_13)"/>
<path fill-rule="evenodd" clip-rule="evenodd" d="M64.3037 99.3116C83.3159 91.0283 95.9937 85.5674 102.337 82.929C120.449 75.3958 124.212 74.0872 126.665 74.0439C127.204 74.0344 128.411 74.1681 129.192 74.8022C129.852 75.3376 130.033 76.0608 130.12 76.5684C130.207 77.0759 130.315 78.2322 130.229 79.1357C129.248 89.4482 125.001 114.474 122.841 126.024C121.926 130.911 120.126 132.55 118.384 132.71C114.596 133.059 111.72 130.207 108.052 127.803C102.312 124.04 99.0695 121.698 93.4978 118.026C87.0588 113.783 91.233 111.451 94.9025 107.639C95.8629 106.642 112.55 91.4639 112.873 90.087C112.913 89.9148 112.951 89.2729 112.569 88.934C112.188 88.595 111.625 88.7109 111.219 88.8031C110.643 88.9338 101.474 94.9946 83.7099 106.986C81.1072 108.773 78.7496 109.644 76.6374 109.598C74.3088 109.548 69.8295 108.281 66.4996 107.199C62.4154 105.871 59.1693 105.169 59.4519 102.915C59.5992 101.74 61.2164 100.539 64.3037 99.3116Z" fill="white"/>
</g>
</g>
<defs>
<filter id="filter0_d_1_13" x="0" y="0" width="200" height="200" filterUnits="userSpaceOnUse" color-interpolation-filters="sRGB">
<feFlood flood-opacity="0" result="BackgroundImageFix"/>
<feColorMatrix in="SourceAlpha" type="matrix" values="0 0 0 0 0 0 0 0 0 0 0 0 0 0 0 0 0 0 127 0" result="hardAlpha"/>
<feOffset/>
<feGaussianBlur stdDeviation="12.5"/>
<feComposite in2="hardAlpha" operator="out"/>
<feColorMatrix type="matrix" values="0 0 0 0 0.309804 0 0 0 0 0.517647 0 0 0 0 0.968627 0 0 0 0.5 0"/>
<feBlend mode="normal" in2="BackgroundImageFix" result="effect1_dropShadow_1_13"/>
<feBlend mode="normal" in="SourceGraphic" in2="effect1_dropShadow_1_13" result="shape"/>
</filter>
<linearGradient id="paint0_linear_1_13" x1="100" y1="34.7826" x2="100" y2="164.25" gradientUnits="userSpaceOnUse">
<stop stop-color="#2AABEE"/>
<stop offset="1" stop-color="#229ED9"/>
</linearGradient>
<clipPath id="clip0_1_13">
<rect width="130.435" height="130.435" fill="white" transform="translate(34.7826 34.7826)"/>
</clipPath>
</defs>
</svg>
