<svg width="1440" height="333" viewBox="0 0 1440 333" fill="none" xmlns="http://www.w3.org/2000/svg">
<path fill-rule="evenodd" clip-rule="evenodd" d="M0 175.263L24 131.447C48 87.6316 96 0 144 0C192 0 240 87.6316 288 105.158C336 122.684 384 70.1053 432 87.6316C480 105.158 528 192.789 576 192.789C624 192.789 672 105.158 720 70.1053C768 35.0526 816 52.5789 864 78.8684C912 105.158 960 140.211 1008 157.737C1056 175.263 1104 175.263 1152 157.737C1200 140.211 1248 105.158 1296 96.3947C1344 87.6316 1392 105.158 1416 113.921L1440 122.684V333H1416C1392 333 1344 333 1296 333C1248 333 1200 333 1152 333C1104 333 1056 333 1008 333C960 333 912 333 864 333C816 333 768 333 720 333C672 333 624 333 576 333C528 333 480 333 432 333C384 333 336 333 288 333C240 333 192 333 144 333C96 333 48 333 24 333H0V175.263Z" fill="#F5C144" fill-opacity="0.8"/>
</svg>
